<?xml version='1.0' encoding='iso-8859-1'?>
<svg version="1.1" xmlns="http://www.w3.org/2000/svg" viewBox="0 0 269.246 269.246" xmlns:xlink="http://www.w3.org/1999/xlink" enable-background="new 0 0 269.246 269.246">
  <path d="m186.123,186.246h-36.5v-31.765l41.646,19.855-8.182-62.219 43.19-45.526-61.702-11.445-29.952-55.146-29.952,55.146-61.702,11.445 43.19,45.526-8.182,62.219 41.646-19.855v31.765h-36.5v53h-17.5v30h17.5 103 17.5v-30h-17.5v-53zm-83.375-100.231l21.458-3.98 10.417-19.179 10.417,19.179 21.458,3.98-15.021,15.833 2.846,21.639-19.7-9.394-19.7,9.394 2.846-21.639-15.021-15.833zm10.375,153.231v-23h43v23h-43z"/>
</svg>
